<svg width="1201" height="194" viewBox="0 0 1201 194" fill="none" xmlns="http://www.w3.org/2000/svg">
<path d="M1172.25 26.7465H1105.53C1101.85 26.7465 1098.63 28.0332 1095.88 30.6068C1093.3 33.1803 1092.01 36.3053 1092.01 39.9818V166.269H1172.25V26.7465ZM1100.29 0H1155.43C1161.5 0 1167.11 1.19486 1172.25 3.58458C1177.59 5.79048 1182.18 8.9155 1186.04 12.9596C1190.09 16.8199 1193.21 21.4156 1195.42 26.7465C1197.81 31.8936 1199 37.5002 1199 43.5664V149.449C1199 155.516 1197.81 161.214 1195.42 166.545C1193.21 171.692 1190.09 176.288 1186.04 180.332C1182.18 184.192 1177.59 187.317 1172.25 189.707C1167.11 191.913 1161.5 193.016 1155.43 193.016H1108.83C1102.95 193.016 1097.35 191.913 1092.01 189.707C1086.87 187.317 1082.27 184.192 1078.23 180.332C1074.37 176.288 1071.24 171.692 1068.85 166.545C1066.65 161.214 1065.54 155.516 1065.54 149.449V41.912C1065.54 38.2355 1066.83 35.1105 1069.4 32.5369C1071.98 29.7796 1075.1 28.4009 1078.78 28.4009H1082.36C1086.04 28.4009 1089.17 27.1141 1091.74 24.5406C1094.5 21.967 1095.88 18.842 1095.88 15.1655V4.4118C1095.88 1.4706 1097.35 0 1100.29 0Z" fill="white"/>
<path d="M1011.13 105.331C1011.13 108.273 1009.66 109.743 1006.72 109.743H934.752V188.604C934.752 191.545 933.282 193.016 930.34 193.016H912.693C909.752 193.016 908.281 191.545 908.281 188.604V41.912C908.281 38.2355 909.568 35.1105 912.142 32.5369C914.715 29.7796 917.84 28.4009 921.517 28.4009H925.101C928.778 28.4009 931.903 27.1141 934.476 24.5406C937.234 21.967 938.612 18.842 938.612 15.1655V4.4118C938.612 1.4706 940.083 0 943.024 0H998.172C1004.24 0 1009.84 1.19486 1014.99 3.58458C1020.32 5.79048 1024.92 8.9155 1028.78 12.9596C1032.82 16.8199 1035.95 21.4156 1038.15 26.7465C1040.54 31.8936 1041.74 37.5002 1041.74 43.5664V67.8313C1041.74 71.5077 1040.36 74.7247 1037.6 77.4821C1035.03 80.0556 1031.9 81.3424 1028.23 81.3424H1024.64C1020.97 81.3424 1017.75 82.6291 1014.99 85.2027C1012.42 87.7762 1011.13 90.9013 1011.13 94.5777V105.331ZM934.752 82.9968H1001.48C1005.16 82.9968 1008.28 81.71 1010.86 79.1365C1013.61 76.5629 1014.99 73.4379 1014.99 69.7614V26.7465H948.263C944.587 26.7465 941.37 28.0332 938.612 30.6068C936.039 33.1803 934.752 36.3053 934.752 39.9818V82.9968Z" fill="white"/>
<path d="M863.84 82.9968C866.782 82.9968 868.252 84.5593 868.252 87.6843V105.331C868.252 108.273 866.782 109.743 863.84 109.743H788.289C784.612 109.743 781.395 111.122 778.638 113.879C776.064 116.453 774.777 119.578 774.777 123.254V153.034C774.777 156.71 776.064 159.835 778.638 162.409C781.395 164.983 784.612 166.269 788.289 166.269H877.352C880.293 166.269 881.763 167.74 881.763 170.681V188.604C881.763 191.545 880.293 193.016 877.352 193.016H783.05C780.108 193.016 778.638 191.545 778.638 188.604V177.85C778.638 174.174 777.259 171.049 774.502 168.475C771.928 165.718 768.803 164.339 765.127 164.339H761.542C757.866 164.339 754.741 163.052 752.167 160.479C749.593 157.905 748.307 154.78 748.307 151.104V124.909C748.307 121.232 749.593 118.107 752.167 115.534C754.741 112.96 757.866 111.673 761.542 111.673H765.127C768.803 111.673 771.928 110.387 774.502 107.813C777.259 105.24 778.638 102.115 778.638 98.4381V94.5777C778.638 90.9013 777.259 87.7762 774.502 85.2027C771.928 82.6291 768.803 81.3424 765.127 81.3424H761.542C757.866 81.3424 754.741 80.0556 752.167 77.4821C749.593 74.7247 748.307 71.5077 748.307 67.8313V41.912C748.307 38.2355 749.593 35.1105 752.167 32.5369C754.741 29.7796 757.866 28.4009 761.542 28.4009H765.127C768.803 28.4009 771.928 27.1141 774.502 24.5406C777.259 21.967 778.638 18.842 778.638 15.1655V4.4118C778.638 1.4706 780.108 0 783.05 0H877.352C880.293 0 881.763 1.4706 881.763 4.4118V22.059C881.763 25.184 880.293 26.7465 877.352 26.7465H788.289C784.612 26.7465 781.395 28.0332 778.638 30.6068C776.064 33.1803 774.777 36.3053 774.777 39.9818V69.7614C774.777 73.4379 776.064 76.5629 778.638 79.1365C781.395 81.71 784.612 82.9968 788.289 82.9968H863.84Z" fill="white"/>
<path d="M587.331 4.4118C587.331 1.4706 588.802 0 591.743 0H677.221C683.288 0 688.894 1.19486 694.041 3.58458C699.372 5.79048 703.968 8.9155 707.828 12.9596C711.872 16.8199 714.997 21.4156 717.203 26.7465C719.593 31.8936 720.788 37.5002 720.788 43.5664V67.8313C720.788 71.5077 719.409 74.6328 716.652 77.2063C714.078 79.7799 710.953 81.0666 707.277 81.0666H703.692C700.016 81.0666 696.799 82.4453 694.041 85.2027C691.468 87.7762 690.181 90.9013 690.181 94.5777V98.1623C690.181 101.839 691.468 105.056 694.041 107.813C696.799 110.387 700.016 111.673 703.692 111.673H707.277C710.953 111.673 714.078 112.96 716.652 115.534C719.409 118.107 720.788 121.232 720.788 124.909V188.604C720.788 191.545 719.317 193.016 716.376 193.016H698.453C695.512 193.016 694.041 191.545 694.041 188.604V122.979C694.041 119.302 692.663 116.177 689.905 113.604C687.332 111.03 684.207 109.743 680.53 109.743H613.802V188.604C613.802 191.545 612.331 193.016 609.39 193.016H591.743C588.802 193.016 587.331 191.545 587.331 188.604V4.4118ZM613.802 26.7465V82.9968H680.53C684.207 82.9968 687.332 81.71 689.905 79.1365C692.663 76.5629 694.041 73.4379 694.041 69.7614V26.7465H613.802Z" fill="white"/>
<path d="M562.541 0C565.482 0.000116976 566.953 1.4699 566.953 4.41016V22.0586C566.953 25.1833 565.482 26.746 562.541 26.7461H513.46V188.604C513.46 191.545 511.99 193.014 509.05 193.015H491.125C488.185 193.014 486.714 191.545 486.714 188.604V26.7461H444.812L444.468 26.75C440.934 26.828 437.832 28.1136 435.161 30.6064C432.588 33.18 431.301 36.305 431.301 39.9814V52.665C431.301 55.6062 429.83 57.0771 426.889 57.0771H409.241C406.3 57.0771 404.83 55.6062 404.83 52.665V34.7422C404.83 31.8014 406.3 30.3311 409.241 30.3311H419.995C423.672 30.3311 426.797 29.0442 429.37 26.4707C431.82 24.0212 433.103 21.0718 433.221 17.623V4.41016C433.221 1.46979 434.693 0 437.634 0H562.541Z" fill="white"/>
<path d="M345.005 0.575195C347.946 0.575195 349.417 2.04579 349.417 4.98699V153.609C349.417 157.286 350.704 160.411 353.277 162.984C356.035 165.558 359.252 166.845 362.928 166.845H451.991C454.932 166.845 456.403 168.315 456.403 171.256V189.179C456.403 192.12 454.932 193.591 451.991 193.591H357.689C354.748 193.591 353.277 192.12 353.277 189.179V178.425C353.277 174.749 351.899 171.624 349.141 169.05C346.568 166.293 343.443 164.914 339.766 164.914H336.182C332.505 164.914 329.38 163.628 326.807 161.054C324.233 158.48 322.946 155.355 322.946 151.679V4.98699C322.946 2.04579 324.417 0.575195 327.358 0.575195H345.005Z" fill="white"/>
<path d="M163.534 0.575195H181.181C184.122 0.575195 185.593 2.04579 185.593 4.98699V153.609C185.593 157.286 186.88 160.411 189.453 162.984C192.211 165.558 195.427 166.845 199.104 166.845H265.832V4.98699C265.832 2.04579 267.303 0.575195 270.244 0.575195H288.167C291.108 0.575195 292.579 2.04579 292.579 4.98699V150.025C292.579 156.091 291.384 161.789 288.994 167.12C286.788 172.267 283.663 176.863 279.619 180.907C275.759 184.767 271.163 187.892 265.832 190.282C260.685 192.488 255.079 193.591 249.012 193.591H193.865C190.924 193.591 189.453 192.12 189.453 189.179V178.425C189.453 174.749 188.075 171.624 185.317 169.05C182.744 166.293 179.619 164.914 175.942 164.914H172.357C168.681 164.914 165.556 163.628 162.982 161.054C160.409 158.48 159.122 155.355 159.122 151.679V4.98699C159.122 2.04579 160.593 0.575195 163.534 0.575195Z" fill="white"/>
<path d="M30.331 4.98668C30.331 2.04548 31.8016 0.574883 34.7428 0.574883H89.8902C95.9564 0.574883 101.563 1.76975 106.71 4.15947C112.041 6.36536 116.637 9.49038 120.497 13.5345C124.541 17.3948 127.666 21.9904 129.872 27.3214C132.262 32.4684 133.457 38.0751 133.457 44.1413V62.0642H106.71V27.3214H39.9818C36.3053 27.3214 33.0884 28.6081 30.331 31.1817C27.7575 33.7552 26.4707 36.8802 26.4707 40.5567V166.844H106.71V132.101H133.457V150.024C133.457 156.09 132.262 161.789 129.872 167.12C127.666 172.267 124.541 176.863 120.497 180.907C116.637 184.767 112.041 187.892 106.71 190.282C101.563 192.488 95.9564 193.591 89.8902 193.591H43.2907C37.4083 193.591 31.8016 192.488 26.4707 190.282C21.3236 187.892 16.728 184.767 12.6839 180.907C8.82358 176.863 5.69856 172.267 3.30884 167.12C1.10295 161.789 0 156.09 0 150.024V42.4869C0 38.8104 1.28677 35.6854 3.86032 33.1118C6.43386 30.3545 9.55888 28.9758 13.2354 28.9758H16.8199C20.4964 28.9758 23.6215 27.689 26.195 25.1155C28.9524 22.5419 30.331 19.4169 30.331 15.7404V4.98668Z" fill="white"/>
</svg>
